<?xml version="1.0" encoding="UTF-8"?>
<svg id="Capa_1" data-name="Capa 1" xmlns="http://www.w3.org/2000/svg" viewBox="0 0 1436.58 1444.56">
  <defs>
    <style>
      .cls-1 {
        fill: #73cce9;
      }

      .cls-2 {
        stroke: #e37e46;
      }

      .cls-2, .cls-3, .cls-4, .cls-5, .cls-6 {
        stroke-linecap: round;
      }

      .cls-2, .cls-3, .cls-4, .cls-5, .cls-6, .cls-7 {
        stroke-miterlimit: 10;
      }

      .cls-2, .cls-4, .cls-5, .cls-6, .cls-7 {
        fill: none;
      }

      .cls-2, .cls-6 {
        stroke-width: 10px;
      }

      .cls-3 {
        fill: #fff;
      }

      .cls-3, .cls-5 {
        stroke: #342a47;
        stroke-width: 12px;
      }

      .cls-4, .cls-7 {
        stroke: #f3d93f;
        stroke-width: 76px;
      }

      .cls-8 {
        fill: #342a47;
      }

      .cls-6 {
        stroke: #8063ba;
      }

      .cls-9 {
        fill: #f3d93f;
      }

      .cls-10 {
        fill: #e37e46;
      }

      .cls-11 {
        fill: #f2d63e;
      }
    </style>
  </defs>
  <path class="cls-9" d="M636.26,1322.84c-.79,8.65-7.55,27.85-39.97,25.18-28.64-2.36-36.66-19.83-36.03-26.12,5.19-92.37,10.54-184.89,15.74-277.25,1.1-19.51,27.69-23.13,37.61-23.13,22.03,0,33.52,25.65,33.52,37.76-3.62,87.8-7.24,175.76-10.86,263.56h0Z"/>
  <path class="cls-9" d="M808.41,1322.84c.47,5.98,7.55,27.85,39.97,25.18,28.64-2.36,36.03-22.03,36.03-26.12-5.19-92.37-10.54-184.89-15.74-277.25-1.1-19.51-27.69-23.13-37.61-23.13-22.03,0-33.52,25.65-33.52,37.76,3.62,87.8,7.24,175.76,10.86,263.56h0Z"/>
  <path class="cls-9" d="M805.89,1387.83c0-4.56,2.05-35.25,2.36-64.99.31-29.74,65.77-24.7,74.58-25.65,65.46-6.77,148.54,27.22,154.36,90.63"/>
  <path class="cls-9" d="M639.25,1387.83c0-4.56-2.05-35.25-2.36-64.99s-65.77-24.7-74.58-25.65c-65.46-6.77-148.54,27.22-154.36,90.63"/>
  <path class="cls-9" d="M684.1,224.68c10.39,3.62,23.29-48.15,79.15-79.93,21.24-12.12,35.88-13.85,35.25-18.25-1.26-8.5-59.16-24.55-95.51,8.18-34.3,30.68-29.11,86.39-18.88,90.01h0Z"/>
  <path class="cls-4" d="M394.57,872.34c-91.58,21.87-152.63,68.76-153.26,116.44-.16,17.31,7.71,31.47,9.91,35.25,34.3,59.64,137.05,47.05,139.89,71.44.63,5.51-3.62,14.63-32.1,28.64"/>
  <path class="cls-4" d="M1026.66,928.67c7.24,8.65,41.54,47.68,98.35,52.4,51.77,4.25,105.11-21.56,128.08-62.94,1.57-2.83,2.99-5.66,4.09-8.65,14.48-38.55,9.13-72.38,5.98-96.93-3.3-25.49-5.51-60.74-.79-106.37"/>
  <path class="cls-7" d="M1296.83,788.32c24.23-2.2,43.9,14.48,45.95,32.41,2.36,20.3-17.94,43.59-45.95,41.86"/>
  <path class="cls-8" d="M1356.47,885.87c-11.01,8.65-23.76,15.26-37.61,17.94-31.94,5.66-64.2-11.33-60.11-47.36,1.57-15.89,12.59-29.74,26.75-36.82v12.43c-26.59-11.33-39.18-40.28-21.87-65.14,7.4-10.39,18.1-17.94,30.37-20.77,12.12-2.68,24.55-.31,34.3,5.51.31.16.47.79.31,1.1-.16.31-.47.47-.79.31-10.86-1.89-21.71-1.1-30.68,2.83-21.09,9.6-34.77,35.56-16.99,55.07,5.35,6.61,16.99,11.8,24.23,15.89-5.51,2.36-16.36,5.82-20.93,9.44-7.08,5.19-12.43,12.9-13.69,21.56-2.2,11.96,1.57,24.55,11.64,31.79,10.54,7.4,23.92,10.23,36.82,8.81,13.22-1.42,25.96-6.77,37.45-14,.79-.63,1.73.63.94,1.26h0l-.16.16Z"/>
  <path class="cls-8" d="M333.2,1100.97c-18.1,20.93-10.23,41.86,14.95,50.67,10.07,3.46,20.3,1.1,30.37-1.1,11.17-2.68,21.24-7.55,32.1-12.59.63-.31,1.42.47,1.1,1.1-5.51,11.96-15.89,21.24-28.17,26.44-12.75,5.66-28.17,3.93-40.44-2.2-15.11-7.08-29.27-21.71-26.28-39.81.47-3.3,1.57-6.45,2.99-9.44,2.99-5.82,7.24-10.54,12.12-14.32.79-.63,1.73.47,1.1,1.1h0l.16.16Z"/>
  <path class="cls-8" d="M574.9,1063.21c-.63,10.39-1.26,20.61-1.73,31,23.92,6.14,47.84,12.27,71.91,18.41.47-10.39.79-20.61,1.26-31,3.15-23.13-13.22-43.11-32.89-45-16.05-1.42-32.41,9.28-38.39,26.59h-.16Z"/>
  <path class="cls-8" d="M869.62,1061.16c.63,10.39,1.26,20.61,1.73,31-23.92,6.14-47.84,12.27-71.91,18.41-.47-10.39-.79-20.61-1.26-31-3.15-23.13,13.22-43.11,32.89-45,16.05-1.42,32.41,9.28,38.39,26.59h.16Z"/>
  <circle class="cls-9" cx="719.5" cy="652.21" r="435.39"/>
  <path class="cls-10" d="M719.5,1078.79c-26.28-44.69-52.71-89.38-78.99-134.06,0-1.89,1.89-3.46,4.09-3.46h149.64c2.2,0,4.09,1.57,4.09,3.46-26.28,44.69-52.71,89.38-78.99,134.06h.16Z"/>
  <rect class="cls-10" x="670.58" y="1082.89" width="97.72" height="105.11" rx="4.9" ry="4.9" transform="translate(-592.16 841.28) rotate(-45)"/>
  <path class="cls-10" d="M690.55,995.08c-13.22,45.63-26.44,91.42-39.65,137.05,45.63,1.89,91.26,3.62,136.9,5.51-13.53-49.09-27.06-98.03-40.6-147.12-18.88,1.57-37.92,2.99-56.8,4.56h.16Z"/>
  <path class="cls-5" d="M676.7,722.39c3.15,3.62,24.23,26.59,58.53,26.44,38.55,0,60.58-29.27,62.78-32.41"/>
  <circle class="cls-3" cx="903.29" cy="571.48" r="123.36"/>
  <circle class="cls-3" cx="569.86" cy="571.48" r="123.36"/>
  <path class="cls-5" d="M676.86,555.75c25.81-8.5,47.21-9.44,61.68-8.81,25.33,1.1,54.13,8.34,54.13,8.81h0"/>
  <circle class="cls-8" cx="569.86" cy="571.48" r="53.66"/>
  <circle class="cls-8" cx="903.29" cy="571.48" r="53.66"/>
  <path class="cls-6" d="M392.37,31.92v94.1"/>
  <path class="cls-6" d="M345.32,78.97h94.1"/>
  <circle class="cls-10" cx="186.39" cy="240.89" r="24.39"/>
  <circle class="cls-1" cx="114.8" cy="506.81" r="9.28"/>
  <circle class="cls-1" cx="1051.2" cy="133.89" r="21.24"/>
  <circle class="cls-10" cx="1353" cy="616.33" r="16.21" transform="translate(265.82 1630.48) rotate(-67.5)"/>
  <circle class="cls-11" cx="1219.1" cy="1178.55" r="16.52"/>
  <path class="cls-2" d="M1289.75,218.39v94.1"/>
  <path class="cls-2" d="M1242.7,265.43h94.1"/>
  <path class="cls-2" d="M105.52,1178.55v94.1"/>
  <path class="cls-2" d="M58.62,1225.6h94.1"/>
</svg>